<svg xmlns="http://www.w3.org/2000/svg" xmlns:xlink="http://www.w3.org/1999/xlink" width="1740" zoomAndPan="magnify" viewBox="0 0 1305 428.250001" height="571" preserveAspectRatio="xMidYMid meet" version="1.0"><defs><g/></defs><g fill="#ffffff" fill-opacity="1"><g transform="translate(117.524514, 283.995101)"><g><path d="M 4.546875 -21.390625 C 18.890625 -7.0625 39.828125 2.734375 68.96875 2.734375 C 109.9375 2.734375 129.75 -18.203125 129.75 -45.984375 C 129.75 -79.671875 97.875 -87.1875 72.84375 -92.875 C 55.3125 -96.96875 42.5625 -100.15625 42.5625 -110.390625 C 42.5625 -119.5 50.3125 -125.875 64.875 -125.875 C 79.671875 -125.875 96.0625 -120.640625 108.34375 -109.265625 L 126.328125 -132.9375 C 111.3125 -146.8125 91.28125 -154.109375 67.15625 -154.109375 C 31.40625 -154.109375 9.5625 -133.609375 9.5625 -108.34375 C 9.5625 -74.4375 41.421875 -67.609375 66.234375 -61.90625 C 83.765625 -57.8125 96.96875 -53.953125 96.96875 -42.5625 C 96.96875 -33.921875 88.3125 -25.5 70.5625 -25.5 C 49.625 -25.5 33 -34.828125 22.3125 -45.984375 Z M 4.546875 -21.390625 "/></g></g></g><g fill="#ffffff" fill-opacity="1"><g transform="translate(254.103084, 283.995101)"><g><path d="M 65.328125 2.734375 C 101.75 2.734375 123.59375 -23.671875 123.59375 -55.078125 C 123.59375 -86.265625 101.75 -112.671875 65.328125 -112.671875 C 29.140625 -112.671875 7.28125 -86.265625 7.28125 -55.078125 C 7.28125 -23.671875 29.140625 2.734375 65.328125 2.734375 Z M 65.328125 -22.984375 C 47.34375 -22.984375 37.328125 -37.78125 37.328125 -55.078125 C 37.328125 -72.15625 47.34375 -86.953125 65.328125 -86.953125 C 83.3125 -86.953125 93.546875 -72.15625 93.546875 -55.078125 C 93.546875 -37.78125 83.3125 -22.984375 65.328125 -22.984375 Z M 65.328125 -22.984375 "/></g></g></g><g fill="#ffffff" fill-opacity="1"><g transform="translate(384.763224, 283.995101)"><g><path d="M 7.28125 -55.078125 C 7.28125 -21.171875 31.640625 2.734375 65.5625 2.734375 C 88.09375 2.734375 101.75 -7.0625 109.03125 -17.296875 L 90.140625 -34.828125 C 84.90625 -27.546875 76.9375 -22.984375 66.921875 -22.984375 C 49.390625 -22.984375 37.109375 -35.96875 37.109375 -55.078125 C 37.109375 -74.203125 49.390625 -86.953125 66.921875 -86.953125 C 76.9375 -86.953125 84.90625 -82.625 90.140625 -75.109375 L 109.03125 -92.640625 C 101.75 -102.890625 88.09375 -112.671875 65.5625 -112.671875 C 31.640625 -112.671875 7.28125 -88.78125 7.28125 -55.078125 Z M 7.28125 -55.078125 "/></g></g></g><g fill="#ffffff" fill-opacity="1"><g transform="translate(498.351065, 283.995101)"><g><path d="M 28.6875 -126.109375 C 38.234375 -126.109375 45.984375 -133.84375 45.984375 -143.40625 C 45.984375 -152.96875 38.234375 -160.703125 28.6875 -160.703125 C 19.34375 -160.703125 11.375 -152.96875 11.375 -143.40625 C 11.375 -133.84375 19.34375 -126.109375 28.6875 -126.109375 Z M 43.25 0 L 43.25 -109.9375 L 14.34375 -109.9375 L 14.34375 0 Z M 43.25 0 "/></g></g></g><g fill="#ffffff" fill-opacity="1"><g transform="translate(555.941701, 283.995101)"><g><path d="M 109.265625 0 L 109.265625 -71.015625 C 109.265625 -102.65625 86.265625 -112.671875 61.234375 -112.671875 C 43.9375 -112.671875 26.625 -107.21875 13.203125 -95.375 L 24.125 -76.03125 C 33.453125 -84.671875 44.390625 -89 56.21875 -89 C 70.796875 -89 80.359375 -81.71875 80.359375 -70.5625 L 80.359375 -55.3125 C 73.0625 -64.1875 60.09375 -68.75 45.53125 -68.75 C 28 -68.75 7.28125 -59.40625 7.28125 -33.6875 C 7.28125 -9.109375 28 2.734375 45.53125 2.734375 C 59.859375 2.734375 72.84375 -2.5 80.359375 -11.375 L 80.359375 0 Z M 80.359375 -26.40625 C 75.578125 -20.03125 66.46875 -16.84375 57.140625 -16.84375 C 45.75 -16.84375 36.421875 -22.765625 36.421875 -33 C 36.421875 -43.46875 45.75 -49.625 57.140625 -49.625 C 66.46875 -49.625 75.578125 -46.4375 80.359375 -40.0625 Z M 80.359375 -26.40625 "/></g></g></g><g fill="#ffffff" fill-opacity="1"><g transform="translate(679.545311, 283.995101)"><g><path d="M 43.25 0 L 43.25 -151.828125 L 14.34375 -151.828125 L 14.34375 0 Z M 43.25 0 "/></g></g></g><g fill="#ffffff" fill-opacity="1"><g transform="translate(737.135948, 283.995101)"><g><path d="M 179.59375 0 L 179.59375 -151.828125 L 134.078125 -151.828125 L 97.203125 -57.140625 L 60.328125 -151.828125 L 15.015625 -151.828125 L 15.015625 0 L 47.34375 0 L 47.34375 -109.265625 L 90.140625 0 L 104.25 0 L 147.046875 -109.265625 L 147.046875 0 Z M 179.59375 0 "/></g></g></g><g fill="#ffffff" fill-opacity="1"><g transform="translate(931.760396, 283.995101)"><g><path d="M 109.265625 0 L 109.265625 -71.015625 C 109.265625 -102.65625 86.265625 -112.671875 61.234375 -112.671875 C 43.9375 -112.671875 26.625 -107.21875 13.203125 -95.375 L 24.125 -76.03125 C 33.453125 -84.671875 44.390625 -89 56.21875 -89 C 70.796875 -89 80.359375 -81.71875 80.359375 -70.5625 L 80.359375 -55.3125 C 73.0625 -64.1875 60.09375 -68.75 45.53125 -68.75 C 28 -68.75 7.28125 -59.40625 7.28125 -33.6875 C 7.28125 -9.109375 28 2.734375 45.53125 2.734375 C 59.859375 2.734375 72.84375 -2.5 80.359375 -11.375 L 80.359375 0 Z M 80.359375 -26.40625 C 75.578125 -20.03125 66.46875 -16.84375 57.140625 -16.84375 C 45.75 -16.84375 36.421875 -22.765625 36.421875 -33 C 36.421875 -43.46875 45.75 -49.625 57.140625 -49.625 C 66.46875 -49.625 75.578125 -46.4375 80.359375 -40.0625 Z M 80.359375 -26.40625 "/></g></g></g><g fill="#ffffff" fill-opacity="1"><g transform="translate(1055.363961, 283.995101)"><g><path d="M 117.453125 0 L 117.453125 -77.625 C 117.453125 -99.015625 105.84375 -112.671875 81.71875 -112.671875 C 63.734375 -112.671875 50.3125 -104.03125 43.25 -95.609375 L 43.25 -109.9375 L 14.34375 -109.9375 L 14.34375 0 L 43.25 0 L 43.25 -73.984375 C 48.03125 -80.578125 56.90625 -86.953125 68.28125 -86.953125 C 80.578125 -86.953125 88.546875 -81.71875 88.546875 -66.46875 L 88.546875 0 Z M 117.453125 0 "/></g></g></g><g fill="#ffffff" fill-opacity="1"><g transform="translate(117.524514, 283.995101)"><g><path d="M 4.546875 -21.390625 C 18.890625 -7.0625 39.828125 2.734375 68.96875 2.734375 C 109.9375 2.734375 129.75 -18.203125 129.75 -45.984375 C 129.75 -79.671875 97.875 -87.1875 72.84375 -92.875 C 55.3125 -96.96875 42.5625 -100.15625 42.5625 -110.390625 C 42.5625 -119.5 50.3125 -125.875 64.875 -125.875 C 79.671875 -125.875 96.0625 -120.640625 108.34375 -109.265625 L 126.328125 -132.9375 C 111.3125 -146.8125 91.28125 -154.109375 67.15625 -154.109375 C 31.40625 -154.109375 9.5625 -133.609375 9.5625 -108.34375 C 9.5625 -74.4375 41.421875 -67.609375 66.234375 -61.90625 C 83.765625 -57.8125 96.96875 -53.953125 96.96875 -42.5625 C 96.96875 -33.921875 88.3125 -25.5 70.5625 -25.5 C 49.625 -25.5 33 -34.828125 22.3125 -45.984375 Z M 4.546875 -21.390625 "/></g></g></g><g fill="#ffffff" fill-opacity="1"><g transform="translate(254.103084, 283.995101)"><g><path d="M 65.328125 2.734375 C 101.75 2.734375 123.59375 -23.671875 123.59375 -55.078125 C 123.59375 -86.265625 101.75 -112.671875 65.328125 -112.671875 C 29.140625 -112.671875 7.28125 -86.265625 7.28125 -55.078125 C 7.28125 -23.671875 29.140625 2.734375 65.328125 2.734375 Z M 65.328125 -22.984375 C 47.34375 -22.984375 37.328125 -37.78125 37.328125 -55.078125 C 37.328125 -72.15625 47.34375 -86.953125 65.328125 -86.953125 C 83.3125 -86.953125 93.546875 -72.15625 93.546875 -55.078125 C 93.546875 -37.78125 83.3125 -22.984375 65.328125 -22.984375 Z M 65.328125 -22.984375 "/></g></g></g><g fill="#ffffff" fill-opacity="1"><g transform="translate(384.763224, 283.995101)"><g><path d="M 7.28125 -55.078125 C 7.28125 -21.171875 31.640625 2.734375 65.5625 2.734375 C 88.09375 2.734375 101.75 -7.0625 109.03125 -17.296875 L 90.140625 -34.828125 C 84.90625 -27.546875 76.9375 -22.984375 66.921875 -22.984375 C 49.390625 -22.984375 37.109375 -35.96875 37.109375 -55.078125 C 37.109375 -74.203125 49.390625 -86.953125 66.921875 -86.953125 C 76.9375 -86.953125 84.90625 -82.625 90.140625 -75.109375 L 109.03125 -92.640625 C 101.75 -102.890625 88.09375 -112.671875 65.5625 -112.671875 C 31.640625 -112.671875 7.28125 -88.78125 7.28125 -55.078125 Z M 7.28125 -55.078125 "/></g></g></g><g fill="#ffffff" fill-opacity="1"><g transform="translate(498.351065, 283.995101)"><g><path d="M 28.6875 -126.109375 C 38.234375 -126.109375 45.984375 -133.84375 45.984375 -143.40625 C 45.984375 -152.96875 38.234375 -160.703125 28.6875 -160.703125 C 19.34375 -160.703125 11.375 -152.96875 11.375 -143.40625 C 11.375 -133.84375 19.34375 -126.109375 28.6875 -126.109375 Z M 43.25 0 L 43.25 -109.9375 L 14.34375 -109.9375 L 14.34375 0 Z M 43.25 0 "/></g></g></g><g fill="#ffffff" fill-opacity="1"><g transform="translate(555.941701, 283.995101)"><g><path d="M 109.265625 0 L 109.265625 -71.015625 C 109.265625 -102.65625 86.265625 -112.671875 61.234375 -112.671875 C 43.9375 -112.671875 26.625 -107.21875 13.203125 -95.375 L 24.125 -76.03125 C 33.453125 -84.671875 44.390625 -89 56.21875 -89 C 70.796875 -89 80.359375 -81.71875 80.359375 -70.5625 L 80.359375 -55.3125 C 73.0625 -64.1875 60.09375 -68.75 45.53125 -68.75 C 28 -68.75 7.28125 -59.40625 7.28125 -33.6875 C 7.28125 -9.109375 28 2.734375 45.53125 2.734375 C 59.859375 2.734375 72.84375 -2.5 80.359375 -11.375 L 80.359375 0 Z M 80.359375 -26.40625 C 75.578125 -20.03125 66.46875 -16.84375 57.140625 -16.84375 C 45.75 -16.84375 36.421875 -22.765625 36.421875 -33 C 36.421875 -43.46875 45.75 -49.625 57.140625 -49.625 C 66.46875 -49.625 75.578125 -46.4375 80.359375 -40.0625 Z M 80.359375 -26.40625 "/></g></g></g><g fill="#ffffff" fill-opacity="1"><g transform="translate(679.545311, 283.995101)"><g><path d="M 43.25 0 L 43.25 -151.828125 L 14.34375 -151.828125 L 14.34375 0 Z M 43.25 0 "/></g></g></g><g fill="#ffffff" fill-opacity="1"><g transform="translate(737.135948, 283.995101)"><g><path d="M 179.59375 0 L 179.59375 -151.828125 L 134.078125 -151.828125 L 97.203125 -57.140625 L 60.328125 -151.828125 L 15.015625 -151.828125 L 15.015625 0 L 47.34375 0 L 47.34375 -109.265625 L 90.140625 0 L 104.25 0 L 147.046875 -109.265625 L 147.046875 0 Z M 179.59375 0 "/></g></g></g><g fill="#ffffff" fill-opacity="1"><g transform="translate(931.760396, 283.995101)"><g><path d="M 109.265625 0 L 109.265625 -71.015625 C 109.265625 -102.65625 86.265625 -112.671875 61.234375 -112.671875 C 43.9375 -112.671875 26.625 -107.21875 13.203125 -95.375 L 24.125 -76.03125 C 33.453125 -84.671875 44.390625 -89 56.21875 -89 C 70.796875 -89 80.359375 -81.71875 80.359375 -70.5625 L 80.359375 -55.3125 C 73.0625 -64.1875 60.09375 -68.75 45.53125 -68.75 C 28 -68.75 7.28125 -59.40625 7.28125 -33.6875 C 7.28125 -9.109375 28 2.734375 45.53125 2.734375 C 59.859375 2.734375 72.84375 -2.5 80.359375 -11.375 L 80.359375 0 Z M 80.359375 -26.40625 C 75.578125 -20.03125 66.46875 -16.84375 57.140625 -16.84375 C 45.75 -16.84375 36.421875 -22.765625 36.421875 -33 C 36.421875 -43.46875 45.75 -49.625 57.140625 -49.625 C 66.46875 -49.625 75.578125 -46.4375 80.359375 -40.0625 Z M 80.359375 -26.40625 "/></g></g></g><g fill="#ffffff" fill-opacity="1"><g transform="translate(1055.363961, 283.995101)"><g><path d="M 117.453125 0 L 117.453125 -77.625 C 117.453125 -99.015625 105.84375 -112.671875 81.71875 -112.671875 C 63.734375 -112.671875 50.3125 -104.03125 43.25 -95.609375 L 43.25 -109.9375 L 14.34375 -109.9375 L 14.34375 0 L 43.25 0 L 43.25 -73.984375 C 48.03125 -80.578125 56.90625 -86.953125 68.28125 -86.953125 C 80.578125 -86.953125 88.546875 -81.71875 88.546875 -66.46875 L 88.546875 0 Z M 117.453125 0 "/></g></g></g></svg>